<svg width="14" height="21" viewBox="0 0 14 21" fill="none" xmlns="http://www.w3.org/2000/svg">
<path d="M10.2325 7.53575H6.38286V0H10.2325C12.3101 0 14 1.6899 14 3.76746C14 5.84501 12.3101 7.53575 10.2325 7.53575ZM7.61714 6.30147H10.2325C11.6296 6.30147 12.7657 5.16452 12.7657 3.7683C12.7657 2.37207 11.6288 1.23512 10.2325 1.23512H7.61714V6.30147ZM7.61714 7.53575H3.76829C1.69074 7.53575 0.000839016 5.84585 0.000839016 3.7683C0.000839016 1.69074 1.69074 0 3.76829 0H7.61798V7.53575H7.61714ZM3.76829 1.23428C2.37123 1.23428 1.23512 2.37123 1.23512 3.76746C1.23512 5.16368 2.37123 6.30147 3.76829 6.30147H6.3837V1.23428H3.76829ZM7.61714 13.8364H3.76829C1.69074 13.8364 0.000839016 12.1465 0.000839016 10.0689C0.000839016 7.99137 1.69074 6.30147 3.76829 6.30147H7.61798V13.8364H7.61714ZM3.76829 7.53575C2.37123 7.53575 1.23512 8.6727 1.23512 10.0689C1.23512 11.4651 2.37207 12.6021 3.76829 12.6021H6.3837V7.53575H3.76829ZM3.78843 20.1378C1.69997 20.1378 0 18.4479 0 16.3704C0 14.2928 1.6899 12.6029 3.76746 12.6029H7.61714V16.3293C7.61714 18.4295 5.89955 20.1378 3.78843 20.1378ZM3.76829 13.8364C3.09673 13.8373 2.45292 14.1044 1.97805 14.5793C1.50318 15.0542 1.23601 15.698 1.23512 16.3696C1.23512 17.7666 2.38046 18.9027 3.78927 18.9027C5.2199 18.9027 6.38454 17.7482 6.38454 16.3284V13.8364H3.76829ZM10.2325 13.8364H10.1503C8.07276 13.8364 6.38286 12.1465 6.38286 10.0689C6.38286 7.99137 8.07276 6.30147 10.1503 6.30147H10.2325C12.3101 6.30147 14 7.99137 14 10.0689C14 12.1465 12.3101 13.8364 10.2325 13.8364ZM10.1512 7.53575C8.75409 7.53575 7.61798 8.6727 7.61798 10.0689C7.61798 11.4651 8.75493 12.6021 10.1512 12.6021H10.2334C11.6304 12.6021 12.7666 11.4651 12.7666 10.0689C12.7666 8.6727 11.6288 7.53575 10.2325 7.53575H10.1512Z" fill="#F5F5F5"/>
</svg>
