<svg width="405" height="549" viewBox="0 0 405 549" fill="none" xmlns="http://www.w3.org/2000/svg">
<path d="M130.338 424.362C130.338 424.362 109.369 436.556 145.261 440.683C188.744 445.643 210.967 444.932 258.885 435.863C258.885 435.863 271.483 443.762 289.078 450.604C181.658 496.642 45.9655 447.937 130.338 424.362ZM117.212 364.285C117.212 364.285 93.6928 381.694 129.612 385.41C176.061 390.202 212.743 390.594 276.218 378.371C276.218 378.371 284.999 387.272 298.803 392.139C168.925 430.117 24.2656 395.134 117.212 364.285Z" fill="white"/>
<path d="M227.869 262.375C254.337 292.848 220.916 320.272 220.916 320.272C220.916 320.272 288.121 285.577 257.257 242.132C228.43 201.614 206.323 181.485 325.999 112.077C326.001 112.076 138.147 158.993 227.869 262.375Z" fill="white"/>
<path d="M369.94 468.799C369.94 468.799 385.458 481.586 352.851 491.476C290.846 510.259 94.7828 515.931 40.3172 492.226C20.7382 483.707 57.4544 471.887 69.0039 469.407C81.0488 466.795 87.9321 467.281 87.9321 467.281C66.1583 451.942 -52.8051 497.398 27.5046 510.418C246.521 545.936 426.752 494.424 369.94 468.799ZM140.422 302.038C140.422 302.038 40.6914 325.726 105.105 334.328C132.302 337.969 186.519 337.145 237.02 332.914C278.293 329.432 319.737 322.032 319.737 322.032C319.737 322.032 305.184 328.264 294.655 335.452C193.38 362.089 -2.26323 349.696 54.0601 322.452C101.693 299.427 140.422 302.038 140.422 302.038ZM319.326 402.04C422.276 348.543 374.678 297.131 341.452 304.059C333.309 305.754 329.678 307.222 329.678 307.222C329.678 307.222 332.702 302.487 338.473 300.437C404.202 277.329 454.751 368.59 317.256 404.737C317.256 404.737 318.851 403.314 319.326 402.04Z" fill="white"/>
<path d="M257.257 0C257.257 0 314.272 57.0332 203.18 144.738C114.096 215.09 182.866 255.203 203.143 301.036C151.145 254.117 112.983 212.818 138.585 174.379C176.16 117.953 280.261 90.5962 257.257 0Z" fill="white"/>
<path d="M150.538 547.004C249.358 553.329 401.106 543.494 404.698 496.737C404.698 496.737 397.792 514.461 323.03 528.54C238.687 544.411 134.658 542.559 72.9587 532.387C72.9617 532.384 85.5909 542.839 150.538 547.004Z" fill="white"/>
</svg>
