<svg width="15" height="15" viewBox="0 0 15 15" fill="none" xmlns="http://www.w3.org/2000/svg">
<path d="M0 0V15H15V0H0ZM7.93428 12.7816C7.71288 13.2314 7.29024 13.527 6.80052 13.6697C6.048 13.8425 5.32824 13.744 4.7928 13.4226C4.43448 13.2028 4.15464 12.8644 3.96468 12.4745L5.10708 11.7749C5.11704 11.7791 5.14704 11.8333 5.18712 11.9034C5.3328 12.1475 5.45844 12.3203 5.7054 12.4416C5.94804 12.5244 6.48072 12.5773 6.6864 12.1504C6.81204 11.9332 6.77208 11.235 6.77208 10.4626C6.77196 9.24876 6.7776 8.04 6.7776 6.84H8.18268C8.18268 8.16 8.18988 9.41016 8.18268 10.6982C8.18568 11.4878 8.2542 12.1918 7.93428 12.7816ZM13.7632 12.3846C13.2748 14.0552 10.5517 14.1095 9.46356 13.0057C9.23364 12.7459 9.08952 12.6102 8.95236 12.3103C9.53064 11.9777 9.53064 11.9777 10.0933 11.6521C10.399 12.1219 10.6816 12.3803 11.19 12.486C11.8798 12.5702 12.5737 12.3332 12.4181 11.6006C12.2581 11.0023 11.0057 10.8568 10.1533 10.2169C9.288 9.63576 9.0852 8.2236 9.79632 7.41672C10.0333 7.11828 10.4375 6.89556 10.8616 6.78852L11.3041 6.73128C12.1538 6.71412 12.685 6.93852 13.0748 7.37388C13.1833 7.4838 13.2719 7.60236 13.4375 7.85928C12.9848 8.14776 12.9863 8.145 12.3379 8.56476C12.1994 8.26644 11.9696 8.07924 11.7268 7.99788C11.3497 7.88364 10.8743 8.00784 10.7756 8.40624C10.7414 8.529 10.7485 8.64324 10.8029 8.84604C10.9556 9.1944 11.4683 9.34584 11.9281 9.55716C13.2518 10.094 13.6988 10.6697 13.8088 11.3549C13.9146 11.9448 13.7832 12.3275 13.7632 12.3846Z" fill="#F5F5F5"/>
</svg>
