<svg width="15" height="15" viewBox="0 0 15 15" fill="none" xmlns="http://www.w3.org/2000/svg">
<path d="M5.68187 7.25481H9.2956C10.3016 7.25481 11.094 6.41294 11.094 5.4138V2.00637C11.094 1.03653 10.2721 0.307925 9.29015 0.146122C8.66876 0.0437688 8.02666 -0.00281097 7.40799 0.00013091C6.78957 0.00295021 6.21676 0.055046 5.69711 0.146122C4.16593 0.413465 3.90592 0.973648 3.90592 2.00637V3.3323H7.49995V3.82261H2.51491C1.46347 3.82261 0.542651 4.44874 0.254757 5.63812C-0.077505 7.00119 -0.0922529 7.8346 0.254757 9.25786C0.511916 10.3172 1.126 11.0547 2.17756 11.0547H3.41019V9.45533C3.41019 8.27405 4.45469 7.25481 5.68187 7.25481ZM5.45408 2.46077C5.07906 2.46077 4.77518 2.1569 4.77518 1.78107C4.77518 1.40365 5.07894 1.09696 5.45408 1.09696C5.82774 1.09696 6.1331 1.40365 6.1331 1.78107C6.13298 2.1569 5.82761 2.46077 5.45408 2.46077ZM14.7228 5.63812C14.4628 4.60258 13.9665 3.82261 12.9136 3.82261H11.5897V5.4138C11.5897 6.64571 10.4999 7.62254 9.2956 7.62254H5.68187C4.6919 7.62254 3.90592 8.52055 3.90592 9.50118V12.9089C3.90592 13.8784 4.74184 14.4489 5.69823 14.7272C6.84361 15.0602 7.92826 15.1204 9.29858 14.7272C10.2094 14.4662 11.094 13.9413 11.094 12.9089V11.545H7.49995V11.0547H12.9136C13.965 11.0547 14.357 10.3467 14.7228 9.25774C15.1005 8.13676 15.0842 7.07596 14.7228 5.63812ZM9.52327 12.4542C9.89841 12.4542 10.2023 12.7581 10.2023 13.1342C10.2023 13.5112 9.89853 13.818 9.52327 13.818C9.14961 13.818 8.84437 13.5113 8.84437 13.1342C8.84437 12.7581 9.14961 12.4542 9.52327 12.4542Z" fill="#F5F5F5"/>
</svg>
