<svg width="15" height="17" viewBox="0 0 15 17" fill="none" xmlns="http://www.w3.org/2000/svg">
<path d="M0 0L1.36518 15.183L7.4909 16.875L13.6337 15.1768L15 0H0ZM12.1639 3.47849L11.7094 8.53643L11.7108 8.56373L11.7089 8.62654V8.62601L11.386 12.1626L11.3505 12.4768L7.5 13.5318L7.49701 13.5345L3.6532 12.4736L3.39292 9.54963H5.27783L5.41157 11.0364L7.50054 11.5973L7.5 11.5984V11.5981L9.59671 11.0293L9.81829 8.60812H5.43519L5.39758 8.19883L5.31191 7.23996L5.26697 6.72509H9.98488L10.1565 4.84207H2.97067L2.93307 4.43305L2.84753 3.47391L2.80245 2.95904H12.2088L12.1639 3.47849Z" fill="#F5F5F5"/>
</svg>
